<svg width="40" height="40" viewBox="0 0 40 40" fill="none" xmlns="http://www.w3.org/2000/svg">
<circle cx="20" cy="20" r="20" fill="#E9E9E9"/>
<path d="M12.293 12.6543L14.0263 12.9541L14.8288 22.5081C14.893 23.2883 15.5455 23.8871 16.3288 23.8846H25.4196C26.1671 23.8862 26.8013 23.3366 26.9071 22.5972L27.698 17.1361C27.7863 16.5257 27.3621 15.9594 26.7521 15.8712C26.6988 15.8637 14.3046 15.8595 14.3046 15.8595" stroke="black" stroke-width="1.5" stroke-linecap="round" stroke-linejoin="round"/>
<path d="M21.7734 18.9382H24.0843" stroke="black" stroke-width="1.5" stroke-linecap="round" stroke-linejoin="round"/>
<path fill-rule="evenodd" clip-rule="evenodd" d="M15.9651 26.7715C16.2159 26.7715 16.4184 26.9748 16.4184 27.2248C16.4184 27.4757 16.2159 27.679 15.9651 27.679C15.7142 27.679 15.5117 27.4757 15.5117 27.2248C15.5117 26.9748 15.7142 26.7715 15.9651 26.7715Z" fill="black" stroke="black" stroke-width="1.5" stroke-linecap="round" stroke-linejoin="round"/>
<path fill-rule="evenodd" clip-rule="evenodd" d="M25.3635 26.7712C25.6143 26.7712 25.8177 26.9746 25.8177 27.2246C25.8177 27.4754 25.6143 27.6787 25.3635 27.6787C25.1127 27.6787 24.9102 27.4754 24.9102 27.2246C24.9102 26.9746 25.1127 26.7712 25.3635 26.7712Z" fill="black" stroke="black" stroke-width="1.5" stroke-linecap="round" stroke-linejoin="round"/>
</svg>
