<svg width="34" height="34" viewBox="0 0 34 34" fill="none" xmlns="http://www.w3.org/2000/svg">
<circle cx="17" cy="17" r="15.5" fill="#FFBF00" stroke="white" stroke-width="3"/>
<path d="M13.984 21.12C15.952 21.12 17.488 19.404 17.488 16.776C17.488 14.148 15.94 12.432 13.96 12.432C11.968 12.432 10.432 14.148 10.432 16.764C10.432 19.392 11.992 21.12 13.984 21.12ZM13.96 19.644C12.82 19.644 12.076 18.684 12.076 16.764C12.076 14.868 12.82 13.92 13.96 13.92C15.1 13.92 15.844 14.88 15.844 16.776C15.844 18.684 15.112 19.644 13.96 19.644ZM20.9099 21.12C22.8179 21.12 24.0899 19.98 24.0899 18.312C24.0899 16.86 23.1539 15.9 21.9179 15.828L23.9579 13.5V12.564H18.6299V13.98H21.6899L19.9259 16.032V16.968C20.1539 16.896 20.5019 16.848 20.8019 16.848C21.8339 16.848 22.4579 17.376 22.4579 18.252C22.4579 19.104 21.8339 19.656 20.8859 19.656C20.2019 19.656 19.5539 19.344 19.2419 18.864L18.1619 19.932C18.8099 20.7 19.7699 21.12 20.9099 21.12Z" fill="black"/>
</svg>
